<?xml version="1.0" encoding="UTF-8" standalone="no"?>
<!-- Created with Inkscape (http://www.inkscape.org/) -->

<svg
   version="1.1"
   id="svg62"
   width="500"
   height="500"
   viewBox="0 0 500 500"
   sodipodi:docname="ajna-records-logo-500x500.svg"
   inkscape:version="1.2.1 (9c6d41e410, 2022-07-14, custom)"
   xmlns:inkscape="http://www.inkscape.org/namespaces/inkscape"
   xmlns:sodipodi="http://sodipodi.sourceforge.net/DTD/sodipodi-0.dtd"
   xmlns="http://www.w3.org/2000/svg"
   xmlns:svg="http://www.w3.org/2000/svg">
  <sodipodi:namedview
     id="namedview42"
     pagecolor="#ffffff"
     bordercolor="#000000"
     borderopacity="0.25"
     inkscape:showpageshadow="2"
     inkscape:pageopacity="0.0"
     inkscape:pagecheckerboard="0"
     inkscape:deskcolor="#d1d1d1"
     showgrid="false"
     inkscape:zoom="2.054"
     inkscape:cx="249.75657"
     inkscape:cy="249.75657"
     inkscape:window-width="2560"
     inkscape:window-height="1367"
     inkscape:window-x="0"
     inkscape:window-y="0"
     inkscape:window-maximized="1"
     inkscape:current-layer="g68" />
  <defs
     id="defs66" />
  <g
     id="g68">
    <path
       style="fill:#000000"
       d="m 179.3569,365.99749 c -7.14166,-1.0456 -15.15983,-4.95884 -19.62443,-9.57763 -4.39515,-4.54693 -7.9613,-13.23026 -7.53261,-18.34138 0.26748,-3.18905 0.73002,-3.71884 4.25032,-4.86825 2.17676,-0.71073 7.10413,-1.15968 10.9754,-1 l 7.02521,0.28977 0.71452,4.20346 c 1.00566,5.9163 2.23609,7.7846 6.44086,9.7799 4.55153,2.15984 11.99278,1.65091 15.67337,-1.07195 5.17551,-3.8288 5.18564,-3.91718 5.72046,-49.91141 l 0.5,-43 5.45068,-0.30922 c 14.21799,-0.80659 21.90291,8.52956 22.06764,26.80922 0.0524,5.8123 -3.5081,47.14842 -4.97415,57.74839 -2.93956,21.25387 -21.5711,32.92634 -46.68727,29.2491 z m 241.76364,-3.96107 c -6.1205,-9.44554 -18.85994,-18.125 -28.7887,-19.61391 -4.71572,-0.70716 -10.3856,0.82561 -14.62137,3.95268 C 374.72043,348.5826 368,360.96393 368,364.2652 c 0,1.74826 -0.46584,1.92089 -3.74672,1.38848 -4.26283,-0.69177 -5.84314,-2.41683 -7.35396,-8.02756 -1.85129,-6.8752 0.0856,-16.75097 12.54948,-63.98571 10.15791,-38.49583 13.85715,-77.51884 10.05616,-106.08156 -0.8008,-6.01763 -1.30332,-11.09382 -1.11671,-11.28043 0.1866,-0.18661 1.34396,2.03691 2.57191,4.94115 3.19523,7.55709 8.23441,18.87432 16.82234,37.78043 31.99268,70.43104 44.47876,105.13518 45.9586,127.73852 0.41481,6.33576 0.14861,9.26176 -1.15259,12.66889 C 440.35694,365.2507 437.50351,367 430.2036,367 h -5.86677 z M 408.93463,323.25 c -0.10751,-2.87809 -12.46373,-39.75 -13.3207,-39.75 -0.73304,0 -11.79679,32.56623 -13.16457,38.75 l -0.60827,2.75 h 13.57945 c 12.29106,0 13.57326,-0.16604 13.51409,-1.75 z M 62.241384,364.67477 C 57.497572,362.04022 56.49774,359.20771 56.531928,348.5 c 0.03548,-11.1113 1.776315,-20.07915 7.18244,-37 3.628455,-11.35685 13.991882,-38.32413 19.791263,-51.5 1.815625,-4.125 5.777269,-13.125 8.803654,-20 3.026384,-6.875 6.853704,-15.425 8.505155,-19 8.86695,-19.19485 18.04139,-39.96037 19.13794,-43.317 0.68582,-2.09935 1.43988,-3.62408 1.67567,-3.38828 0.2358,0.2358 -0.30923,6.00345 -1.21117,12.817 -1.26124,9.52778 -1.50605,16.77545 -1.06023,31.38828 0.87415,28.65274 3.97947,47.02049 14.96215,88.5 7.60834,28.73528 8.97233,35.39724 9.07772,44.33698 0.09,7.633 0.008,7.91281 -3.16784,10.75 -5.22801,4.67123 -7.38874,3.98652 -9.57731,-3.03493 -2.16918,-6.95928 -5.16832,-11.33593 -10.24052,-14.94401 -5.43101,-3.86331 -14.63733,-3.61124 -22.950739,0.62842 -7.508527,3.82918 -15.461143,10.88322 -18.916207,16.77884 L 75.915692,366 70.207846,365.9646 c -3.139315,-0.0195 -6.724223,-0.59989 -7.966462,-1.28979 z M 118,322.81578 c 0,-1.38568 -11.8494,-37.66131 -12.96607,-39.6942 -0.41644,-0.75813 -0.99054,-0.98313 -1.27579,-0.5 C 102.72737,284.36747 91,321.0122 91,322.48721 91,323.76289 93.115943,324 104.5,324 c 9.73338,0 13.5,-0.33041 13.5,-1.18422 z m 210.5,42.19141 c -11.29089,-1.67851 -21.01553,-8.94511 -29.9046,-22.34575 -2.97755,-4.48879 -9.77597,-17.03232 -15.1076,-27.87451 -5.33163,-10.84219 -10.32251,-20.23479 -11.09084,-20.87244 C 271.20547,292.92563 271,297.9858 271,328.31854 c 0,19.55988 -0.38417,35.80086 -0.85372,36.09105 -0.46954,0.2902 -2.8658,-0.7484 -5.32502,-2.30799 C 251.17953,353.45027 245,338.47444 245,314.06561 c 0,-24.57237 6.1316,-44.98388 16.85523,-56.10946 7.97852,-8.27758 7.63191,-8.5407 23.44,17.79385 24.53216,40.86788 28.60015,47.54538 29.53389,48.47912 1.63667,1.63667 2.19467,-7.3088 1.16829,-18.72912 -1.63604,-18.2037 -2.32652,-34.93214 -1.60141,-38.79733 1.44987,-7.72848 9.21241,-13.21722 19.604,-13.86161 l 5.5,-0.34106 0.25827,56.13121 0.25827,56.1312 -2.25827,0.60514 c -2.50189,0.67042 -2.2615,0.67978 -9.25827,-0.36036 z m -96,-158.05269 c -22.6811,-3.50657 -45.80013,-14.21458 -64.86196,-30.042 -17.06567,-14.16998 -23.85143,-23.93996 -23.95062,-34.48356 -0.0905,-9.62023 3.12181,-15.04671 16.60997,-28.05879 20.78867,-20.054929 40.70958,-30.919158 66.96894,-36.522733 18.84264,-4.020897 46.40325,-2.812947 64.23367,2.815288 12.55125,3.961847 28.25871,11.596314 37.5,18.226534 11.76915,8.443851 27.70005,24.345801 31.66515,31.607621 3.88134,7.10841 3.87001,15.88107 -0.0302,23.37919 -2.7454,5.278 -15.91827,19.36645 -24.20732,25.88983 -14.81697,11.66078 -32.95549,20.36289 -52.92764,25.39249 -9.18424,2.31288 -40.51952,3.41645 -51,1.79613 z m 42.11463,-10.50245 c 17.69178,-3.08519 36.24539,-10.84542 50.38537,-21.07418 7.59679,-5.49546 16,-12.74341 16,-13.80034 C 341,161.25989 339.46007,161 337.57792,161 c -2.78185,0 -4.09414,0.78515 -7.01435,4.19677 l -3.59228,4.19676 0.60089,-3.44676 c 0.33049,-1.89572 0.74257,-3.93041 0.91573,-4.52153 0.17316,-0.59112 -1.6592,-2.15313 -4.07191,-3.47113 -4.33556,-2.36839 -4.44124,-2.37615 -9.0579,-0.6651 -2.56914,0.95219 -4.81747,1.58496 -4.99628,1.40615 -0.17881,-0.17881 1.41544,-2.02471 3.54278,-4.102 l 3.86788,-3.77689 7.36376,1.97783 c 4.05007,1.0878 10.58563,2.27739 14.52347,2.64352 l 7.15971,0.66569 2.74113,-3.59381 c 2.85946,-3.74895 4.27101,-11.06018 3.06389,-15.86972 -1.18675,-4.72837 -28.45268,-31.14487 -30.27029,-29.32726 -0.32303,0.32303 0.79857,2.83968 2.49243,5.59257 2.95232,4.79813 3.02213,5.16228 1.68705,8.80008 -1.06494,2.90174 -1.40929,3.25381 -1.46317,1.49597 -0.0388,-1.26437 -1.98296,-5.01528 -4.32046,-8.33534 l -4.25,-6.03648 -0.29388,6.50581 c -0.22812,5.05017 -0.97161,7.69825 -3.32293,11.83534 -2.33359,4.10587 -2.87724,4.64073 -2.36779,2.32953 0.36369,-1.65 0.98554,-7.95 1.38188,-14 0.39634,-6.05 1.04628,-11.70032 1.44432,-12.55627 1.45807,-3.135498 -20.34197,-12.263116 -37.08544,-15.527571 -17.40968,-3.394346 -42.3668,-1.89989 -58.93519,3.529094 -14.14208,4.633955 -31.27229,13.445137 -33.73759,17.353447 -1.40185,2.22239 0.64889,4.22437 6.47235,6.31845 4.76656,1.71404 6.49365,3.38285 3.50097,3.38285 -0.79381,0 -2.10639,0.94671 -2.91684,2.10379 l -1.47356,2.10379 -0.33315,-2.31011 c -0.26092,-1.80926 -1.2929,-2.5429 -4.75981,-3.38376 -2.43466,-0.59051 -4.60966,-1.62267 -4.83333,-2.29368 -0.87442,-2.62326 -3.63179,-0.86712 -12.60811,8.02997 -10.22244,10.13221 -12.58754,13.74151 -12.75259,19.46133 -0.16929,5.86634 1.56678,8.94537 9.90173,17.56141 19.39958,20.05384 45.62054,34.00201 70.71896,37.61876 10.08082,1.45267 30.55027,1.22843 40.11463,-0.43945 z m -34.51,-6.03457 c -8.3687,-2.25047 -15.01909,-6.28416 -22.10463,-13.40722 -6.94607,-6.98286 -11.00616,-14.09707 -13.49212,-23.64132 -6.09437,-23.39788 7.47677,-49.29714 30.60939,-58.415165 7.77869,-3.066073 16.7132,-4.112422 25.03597,-2.932042 C 266.94627,92.985158 271.94207,95 267.53786,95 c -3.51867,0 -10.44243,4.981028 -13.00724,9.35754 -6.92353,11.81411 -2.30996,26.07627 10.11453,31.26756 12.90013,5.39001 28.39111,-5.07007 28.60648,-19.31615 0.0358,-2.36992 0.38117,-4.30895 0.76743,-4.30895 0.38626,0 2.10095,2.62415 3.81042,5.83145 10.91949,20.48706 6.92651,44.94313 -9.88159,60.52237 -10.1498,9.40773 -21.18338,13.70016 -34.90799,13.58037 -4.14694,-0.0362 -9.96782,-0.71872 -12.93527,-1.51671 z M 220.97495,161.43469 C 215.09287,149.17916 215.017,135.00689 220.76919,123 c 1.4492,-3.025 2.83473,-5.95 3.07896,-6.5 0.24423,-0.55 -0.48816,-0.1731 -1.62754,0.83755 -5.37035,4.76365 -9.56787,19.18006 -8.49227,29.16672 0.56293,5.22661 5.16405,16.61435 7.96213,19.7062 2.56703,2.83653 2.39865,1.7127 -0.71552,-4.77578 z"
       id="path1281"
       sodipodi:nodetypes="ssssscsssscsssssssssssssssssscsssscsssssssssssssscsssscssssssssssssssssssssssscccsssssssssssssssssssscsssssscsscssssssscssssssssssscsssssssssssssssssssssssssssss" />
  </g>
</svg>
