<?xml version="1.0" encoding="UTF-8" standalone="no"?>
<svg
   width="62"
   height="62"
   viewBox="0 0 62 62"
   fill="none"
   version="1.1"
   id="svg4"
   sodipodi:docname="email-icon.svg"
   inkscape:version="1.2.1 (9c6d41e410, 2022-07-14, custom)"
   xmlns:inkscape="http://www.inkscape.org/namespaces/inkscape"
   xmlns:sodipodi="http://sodipodi.sourceforge.net/DTD/sodipodi-0.dtd"
   xmlns="http://www.w3.org/2000/svg"
   xmlns:svg="http://www.w3.org/2000/svg">
  <defs
     id="defs8" />
  <sodipodi:namedview
     id="namedview6"
     pagecolor="#ffffff"
     bordercolor="#000000"
     borderopacity="0.25"
     inkscape:showpageshadow="2"
     inkscape:pageopacity="0.0"
     inkscape:pagecheckerboard="0"
     inkscape:deskcolor="#d1d1d1"
     showgrid="false"
     inkscape:zoom="16.564516"
     inkscape:cx="30.969815"
     inkscape:cy="30.969815"
     inkscape:window-width="2560"
     inkscape:window-height="1367"
     inkscape:window-x="0"
     inkscape:window-y="0"
     inkscape:window-maximized="1"
     inkscape:current-layer="svg4" />
  <path
     d="M 51.027016,7.4251313 H 10.33238 c -2.3127977,0 -4.5308297,0.9187747 -6.1662055,2.5541732 C 2.53081,11.614589 1.6120694,13.832678 1.6120694,16.145476 v 29.067548 c 0,2.312798 0.9187406,4.530887 2.5541051,6.166171 1.6353758,1.635399 3.8534078,2.554174 6.1662055,2.554174 h 40.694636 c 2.312798,0 4.530773,-0.918775 6.166171,-2.554174 1.635399,-1.635284 2.554174,-3.853373 2.554174,-6.166171 V 16.145476 c 0,-2.312798 -0.918775,-4.530887 -2.554174,-6.1661715 C 55.557789,8.343906 53.339814,7.4251313 51.027016,7.4251313 Z M 49.079523,13.238732 30.679698,27.045821 12.279873,13.238732 Z m 1.947493,34.88115 H 10.33238 c -0.7709708,0 -1.5103337,-0.306296 -2.0553907,-0.851467 C 7.7318185,46.723358 7.4256361,45.983995 7.4256361,45.213024 V 16.872105 L 28.935606,33.004611 c 0.503217,0.377469 1.115127,0.581439 1.744092,0.581439 0.628964,0 1.240874,-0.20397 1.744092,-0.581439 L 53.93376,16.872105 v 28.340919 c 0,0.770971 -0.306183,1.510334 -0.851353,2.055391 -0.545057,0.545171 -1.28442,0.851467 -2.055391,0.851467 z"
     fill="#000000"
     id="path2"
     style="stroke-width:1.13696" />
</svg>
