<svg width="62" height="62" viewBox="0 0 62 62" fill="none" xmlns="http://www.w3.org/2000/svg">
<path d="M43.4624 8.94821C43.4624 8.60918 43.3277 8.28404 43.088 8.04431C42.8483 7.80458 42.5231 7.6699 42.1841 7.6699H35.7925C32.5741 7.50958 29.423 8.62963 27.0277 10.7853C24.6325 12.9411 23.1879 15.9572 23.0095 19.1747V26.0775H16.6179C16.2789 26.0775 15.9537 26.2122 15.714 26.452C15.4743 26.6917 15.3396 27.0168 15.3396 27.3559V34.0031C15.3396 34.3421 15.4743 34.6672 15.714 34.907C15.9537 35.1467 16.2789 35.2814 16.6179 35.2814H23.0095V52.4107C23.0095 52.7497 23.1441 53.0749 23.3839 53.3146C23.6236 53.5543 23.9487 53.689 24.2878 53.689H31.9576C32.2966 53.689 32.6218 53.5543 32.8615 53.3146C33.1012 53.0749 33.2359 52.7497 33.2359 52.4107V35.2814H39.9343C40.2185 35.2854 40.496 35.1947 40.7229 35.0233C40.9498 34.852 41.1131 34.6099 41.187 34.3354L43.0278 27.6882C43.0786 27.4993 43.0855 27.3013 43.0477 27.1094C43.01 26.9174 42.9288 26.7367 42.8102 26.5811C42.6917 26.4255 42.539 26.2992 42.364 26.2119C42.1889 26.1246 41.9962 26.0786 41.8006 26.0775H33.2359V19.1747C33.2995 18.5419 33.5967 17.9555 34.0694 17.53C34.5422 17.1045 35.1565 16.8705 35.7925 16.8737H42.1841C42.5231 16.8737 42.8483 16.739 43.088 16.4993C43.3277 16.2596 43.4624 15.9344 43.4624 15.5954V8.94821Z" fill="black"/>
</svg>
