<svg width="24" height="24" viewBox="0 0 24 24" fill="none" xmlns="http://www.w3.org/2000/svg">
<g clip-path="url(#clip0_109_6)">
<path d="M12.158 0C9.08996 0.025 6.13796 0.357 4.41796 1.147C4.41796 1.147 1.00796 2.673 1.00796 7.88C1.00796 9.072 0.983965 10.497 1.02196 12.009C1.14496 17.1 1.95497 22.119 6.66196 23.364C8.83296 23.939 10.697 24.059 12.197 23.977C14.919 23.826 16.447 23.005 16.447 23.005L16.357 21.031C16.357 21.031 14.412 21.644 12.227 21.569C10.064 21.495 7.77896 21.336 7.42896 18.679C7.39595 18.4321 7.37991 18.1831 7.38096 17.934C7.38096 17.934 9.50496 18.453 12.197 18.576C13.844 18.652 15.387 18.48 16.956 18.293C19.963 17.933 22.581 16.081 22.91 14.388C23.429 11.721 23.386 7.88 23.386 7.88C23.386 2.673 19.975 1.147 19.975 1.147C18.255 0.357 15.302 0.025 12.233 0H12.158V0ZM8.68596 4.068C9.96396 4.068 10.931 4.559 11.571 5.542L12.193 6.585L12.816 5.542C13.456 4.559 14.423 4.068 15.701 4.068C16.806 4.068 17.696 4.456 18.376 5.214C19.034 5.971 19.362 6.995 19.362 8.284V14.587H16.865V8.47C16.865 7.18 16.322 6.525 15.237 6.525C14.037 6.525 13.435 7.302 13.435 8.838V12.187H10.952V8.837C10.952 7.302 10.351 6.525 9.14996 6.525C8.06496 6.525 7.52196 7.18 7.52196 8.47V14.588H5.02396V8.283C5.02396 6.995 5.35196 5.971 6.01096 5.213C6.69096 4.456 7.58096 4.068 8.68596 4.068Z" fill="black"/>
</g>
<defs>
<clipPath id="clip0_109_6">
<rect width="24" height="24" fill="white"/>
</clipPath>
</defs>
</svg>
